<?xml version="1.0" encoding="utf-8"?>
<!-- Generator: Adobe Illustrator 22.1.0, SVG Export Plug-In . SVG Version: 6.00 Build 0)  -->
<svg version="1.1" id="Layer_1" xmlns="http://www.w3.org/2000/svg" xmlns:xlink="http://www.w3.org/1999/xlink" x="0px" y="0px"
	 viewBox="0 0 79.8 14" style="enable-background:new 0 0 79.8 14;" xml:space="preserve">
<style type="text/css">
	.st0{fill:#FFFFFF;}
</style>
<title>Top</title>
<desc>Created with Sketch.</desc>
<g>
	<path class="st0" d="M14.4,0.1h-3.4V14h3.4c3.6,0,5.8-2.5,5.8-6.8V6.9C20.2,2.6,18,0.1,14.4,0.1z M17.4,7.1c0,1.5-0.3,2.6-0.8,3.4
		c-0.5,0.7-1.3,1-2.2,1h-0.7v-9h0.7c0.9,0,1.7,0.4,2.2,1c0.6,0.7,0.8,1.9,0.8,3.4V7.1z"/>
	<path class="st0" d="M29.5,4.7V4.6c0-1.4-0.4-2.5-1.2-3.3c-0.8-0.8-2-1.2-3.5-1.2h-3.9V14h2.7V9.3h1.1l2.1,4.7h3l-2.4-5.4
		C28.8,7.8,29.5,6.5,29.5,4.7z M24.7,6.9h-1V2.5h1c1.5,0,2.2,0.7,2.2,2.2C26.8,6.1,26,6.9,24.7,6.9z"/>
	<path class="st0" d="M3.8,0L0,14l0,0h2.7l0.7-2.9h3.5L7.6,14h2.8L6.5,0H3.8z M4,8.7l1.1-4.4l1.1,4.4H4z"/>
	<path class="st0" d="M52.2,0l-3.8,14l0,0h2.7l0.7-2.9h3.5L56,14h2.8L54.9,0H52.2z M52.4,8.7l1.1-4.4l1.1,4.4H52.4z"/>
	<polygon class="st0" points="62,0.1 59.3,0.1 59.3,14 66,14 66,11.5 62,11.5 	"/>
	<rect x="66.7" y="0.1" class="st0" width="2.7" height="13.9"/>
	<polygon class="st0" points="33.2,8.2 37.2,8.2 37.2,5.7 33.2,5.7 33.2,2.6 37.7,2.6 37.7,0.1 30.5,0.1 30.5,14 37.8,14 37.8,11.5 
		33.2,11.5 	"/>
	<polygon class="st0" points="77.2,0.1 77.2,7.6 73.3,0.1 73.3,0.1 70.8,0.1 70.8,14 73.4,14 73.4,6.2 77.5,14 77.5,14 79.8,14 
		79.8,0.1 	"/>
	<polygon class="st0" points="45.2,7.6 41.3,0.1 38.9,0.1 38.9,14 41.5,14 41.5,6.2 45.5,14 45.5,14 47.9,14 47.9,0.1 45.2,0.1 	"/>
</g>
</svg>
